<svg width="20" height="20" viewBox="0 0 20 20" fill="none" xmlns="http://www.w3.org/2000/svg">
<circle cx="10" cy="10" r="10" fill="#FF6A57"/>
<path d="M5.45508 5.76189C7.5818 5.55702 9.56527 5.45459 11.4055 5.45459C12.4854 5.45459 13.2788 5.69019 13.7857 6.16138C14.2925 6.63257 14.546 7.37008 14.546 8.37392V9.06535C14.546 9.83359 14.3807 10.4175 14.0501 10.8169C13.7195 11.2267 13.141 11.5647 12.3146 11.831L10.6617 12.3688V13.137H7.68648V10.986L11.5708 9.67994V8.37392C11.5708 8.13833 11.4936 7.95395 11.3394 7.82079C11.1961 7.67738 10.9427 7.60568 10.579 7.60568C9.91789 7.60568 9.05838 7.63641 8.00053 7.69787C6.9537 7.75933 6.10522 7.80542 5.45508 7.83615V5.76189ZM7.68648 14.0589H10.6617V16.3637H7.68648V14.0589Z" fill="#12021E"/>
</svg>
