<svg width="20" height="19" viewBox="0 0 20 19" fill="none" xmlns="http://www.w3.org/2000/svg">
<path d="M18.4112 0H2.554C1.68789 0 0.930664 0.6236 0.930664 1.47981V17.3717C0.930664 18.2329 1.68789 19 2.554 19H18.4063C19.2773 19 19.9306 18.2279 19.9306 17.3717V1.47981C19.9356 0.6236 19.2773 0 18.4112 0ZM6.82021 15.8375H4.09815V7.37432H6.82021V15.8375ZM5.55322 6.08752H5.53342C4.66236 6.08752 4.09815 5.43918 4.09815 4.62751C4.09815 3.80099 4.67721 3.16749 5.56806 3.16749C6.45892 3.16749 7.00333 3.79604 7.02313 4.62751C7.02313 5.43918 6.45892 6.08752 5.55322 6.08752ZM16.7681 15.8375H14.046V11.21C14.046 10.1013 13.6501 9.3441 12.6652 9.3441C11.9129 9.3441 11.4675 9.85387 11.2695 10.3488C11.1953 10.527 11.1755 10.7695 11.1755 11.0169V15.8375H8.45345V7.37432H11.1755V8.55223C11.5714 7.98802 12.1901 7.17635 13.6303 7.17635C15.417 7.17635 16.7681 8.35426 16.7681 10.8932V15.8375Z" fill="#EBEDED"/>
</svg>
