<?xml version="1.0" encoding="UTF-8"?>
<svg xmlns="http://www.w3.org/2000/svg" width="30" height="30" viewBox="0 0 30 30" fill="none">
  <path d="M22.4584 0.0117188H7.51784C3.37827 0.0117188 0 3.38999 0 7.52956V22.4939C0 26.6097 3.37827 29.9879 7.51784 29.9879H22.4822C26.6217 29.9879 30 26.6097 30 22.4701V7.52956C29.9762 3.38999 26.5979 0.0117188 22.4584 0.0117188ZM22.4346 11.2409C22.4346 11.4074 22.4346 11.574 22.4346 11.7405C22.4346 16.7365 18.5805 22.4939 11.5147 22.4939C9.34972 22.4939 7.32752 21.8753 5.63838 20.8047C5.94766 20.8285 6.23315 20.8523 6.54243 20.8523C8.35052 20.8523 9.99207 20.2576 11.3006 19.2346C9.61142 19.2108 8.20777 18.1164 7.70817 16.6176C7.94607 16.6652 8.18398 16.689 8.42189 16.689C8.77875 16.689 9.13561 16.6414 9.44489 16.5462C7.73196 16.1894 6.42347 14.6668 6.42347 12.8349V12.7873C6.89929 13.0728 7.51784 13.2393 8.1364 13.2631C7.1134 12.597 6.42347 11.4312 6.42347 10.1227C6.42347 9.43281 6.6138 8.79047 6.94687 8.21949C8.85012 10.5034 11.6574 12.0022 14.8454 12.1687C14.774 11.8833 14.7502 11.5978 14.7502 11.3123C14.7502 9.2187 16.4631 7.52956 18.5805 7.52956C19.6749 7.52956 20.6741 7.98159 21.3878 8.7191C22.268 8.55256 23.0769 8.24328 23.8144 7.79126C23.5289 8.67151 22.9104 9.40902 22.1253 9.88484C22.9104 9.78967 23.6479 9.59935 24.3378 9.29007C23.8144 10.0514 23.1721 10.7175 22.4346 11.2409Z" fill="white" fill-opacity="0.7"></path>
</svg>
