<?xml version="1.0" encoding="UTF-8"?>
<svg xmlns="http://www.w3.org/2000/svg" width="30" height="30" viewBox="0 0 30 30" fill="none">
  <path d="M15 0C23.2843 0 30 6.71573 30 15C30 23.2843 23.2843 30 15 30C6.71573 30 0 23.2843 0 15C0 6.71573 6.71573 0 15 0ZM21.6623 9C21.0908 9.01014 20.2141 9.31112 15.9947 11.0437C14.5169 11.6506 11.5635 12.9066 7.13429 14.8117C6.41506 15.0941 6.0383 15.3703 6.004 15.6404C5.93815 16.159 6.69437 16.3205 7.64586 16.6258C8.4216 16.8748 9.46512 17.166 10.0076 17.1776C10.4997 17.1881 11.0489 16.9878 11.6553 16.5767C15.7936 13.8188 17.9298 12.4248 18.0639 12.3948C18.1585 12.3736 18.2896 12.3469 18.3785 12.4249C18.4673 12.5028 18.4586 12.6505 18.4492 12.6901C18.3739 13.0068 14.4865 16.4977 14.2627 16.7271L14.1555 16.835C13.3311 17.6492 12.4979 18.1808 13.9355 19.116C15.2335 19.9605 15.9889 20.4992 17.3262 21.3646C18.1807 21.9176 18.8507 22.5735 19.733 22.4933C20.139 22.4564 20.5584 22.0795 20.7713 20.9555C21.2747 18.299 22.264 12.5431 22.4927 10.1713C22.5127 9.9635 22.4875 9.69756 22.4673 9.58081C22.447 9.46407 22.4047 9.29773 22.251 9.1746C22.069 9.02877 21.788 8.99802 21.6623 9Z" fill="white" fill-opacity="0.7"></path>
</svg>
