<?xml version="1.0" encoding="UTF-8"?>
<svg xmlns="http://www.w3.org/2000/svg" width="30" height="30" viewBox="0 0 30 30" fill="none">
  <g clip-path="url(#clip0_642_395)">
    <path d="M3.852 0.00146484H26.1498C28.2682 0.00146484 30 1.73386 30 3.85226V26.1501C30 28.2679 28.2682 29.9991 26.1498 29.9991H3.852C1.7336 29.9991 0 28.2678 0 26.1501V3.85226C0 1.73386 1.7336 0.00146484 3.852 0.00146484ZM21.8546 3.33316C21.1108 3.33316 20.5041 3.94226 20.5041 4.68566V7.91706C20.5041 8.66076 21.1108 9.26846 21.8546 9.26846H25.2449C25.9875 9.26846 26.5955 8.66076 26.5955 7.91706V4.68566C26.5955 3.94226 25.9875 3.33316 25.2449 3.33316H21.8546ZM26.6084 12.6871H23.9688C24.2191 13.5046 24.3548 14.3667 24.3548 15.263C24.3548 20.2512 20.1782 24.297 15.0282 24.297C9.8795 24.297 5.7028 20.2512 5.7028 15.263C5.7028 14.3667 5.8398 13.5046 6.0889 12.6871H3.335V25.3603C3.335 26.0166 3.8709 26.5505 4.5266 26.5505H25.4173C26.0736 26.5505 26.6084 26.0166 26.6084 25.3603V12.6871ZM15.0283 9.09806C11.7023 9.09806 9.0043 11.7109 9.0043 14.9369C9.0043 18.1596 11.7023 20.7744 15.0283 20.7744C18.3561 20.7744 21.0542 18.1596 21.0542 14.9369C21.0542 11.7108 18.3561 9.09806 15.0283 9.09806Z" fill="white" fill-opacity="0.7"></path>
  </g>
  <defs>
    <clipPath id="clip0_642_395">
      <rect width="30" height="30" fill="white"></rect>
    </clipPath>
  </defs>
</svg>
