<?xml version="1.0" encoding="UTF-8"?>
<svg xmlns="http://www.w3.org/2000/svg" width="30" height="30" viewBox="0 0 30 30" fill="none">
  <g clip-path="url(#clip0_642_386)">
    <path d="M19.2875 14.25C19.22 15.0412 18.56 15.6588 17.7575 15.6588C16.91 15.6588 16.2213 14.9713 16.2213 14.1225C16.2213 13.2738 16.9088 12.5863 17.7563 12.5863C18.61 12.6225 19.2875 13.3237 19.2875 14.1825C19.2875 14.2062 19.2875 14.2288 19.2863 14.2525V14.2488L19.2875 14.25ZM12.2825 12.5875C11.4225 12.6637 10.7538 13.38 10.7538 14.2525C10.7538 15.125 11.4225 15.8413 12.2763 15.9175H12.2825C13.1363 15.8813 13.8138 15.18 13.8138 14.3212C13.8138 14.2975 13.8138 14.275 13.8125 14.2513V14.255C13.8138 14.23 13.815 14.2013 13.815 14.1712C13.815 13.315 13.1388 12.6175 12.2913 12.585H12.2888L12.2825 12.5875ZM28.125 3.09V30C24.3463 26.66 25.5538 27.7663 21.165 23.685L21.96 26.46H4.94878C3.25003 26.455 1.87378 25.0775 1.87378 23.3775C1.87378 23.375 1.87378 23.3725 1.87378 23.37V3.09C1.87378 3.0875 1.87378 3.085 1.87378 3.0825C1.87378 1.3825 3.25003 0.005 4.94753 0H25.0488C26.7475 0.005 28.1238 1.3825 28.1238 3.0825V3.09H28.125ZM23.85 17.31C23.7975 14.1112 23.005 11.11 21.6375 8.4525L21.69 8.565C20.535 7.65125 19.08 7.07125 17.4925 6.99125L17.475 6.99L17.265 7.23C18.7025 7.62 19.9525 8.27625 21.0175 9.14875L21 9.135C19.2513 8.17375 17.1675 7.6075 14.9513 7.6075C13.085 7.6075 11.3125 8.00875 9.71503 8.73L9.79503 8.6975C9.24003 8.9525 8.91003 9.135 8.91003 9.135C10.015 8.2325 11.3375 7.5525 12.785 7.185L12.855 7.17L12.705 6.99C11.1 7.07125 9.64503 7.65125 8.47503 8.57625L8.49003 8.565C7.17503 11.11 6.38253 14.1112 6.33003 17.2925V17.31C7.32878 18.6987 8.94003 19.5925 10.7588 19.5925C10.81 19.5925 10.8613 19.5912 10.9125 19.59H10.905C10.905 19.59 11.46 18.915 11.91 18.345C10.8275 18.0662 9.92003 17.4363 9.29378 16.5875L9.28503 16.575C9.50503 16.73 9.87003 16.93 9.89753 16.95C11.4088 17.79 13.2125 18.2838 15.1325 18.2838C16.6213 18.2838 18.04 17.9862 19.3325 17.4487L19.26 17.475C19.92 17.2225 20.4875 16.925 21.015 16.5713L20.9838 16.5912C20.3263 17.47 19.3875 18.1063 18.3038 18.37L18.2713 18.3763C18.7213 18.9463 19.2613 19.5913 19.2613 19.5913C19.3025 19.5925 19.3513 19.5925 19.4 19.5925C21.2263 19.5925 22.8438 18.7 23.84 17.3263L23.8513 17.31H23.85Z" fill="white" fill-opacity="0.7"></path>
  </g>
  <defs>
    <clipPath id="clip0_642_386">
      <rect width="30" height="30" fill="white"></rect>
    </clipPath>
  </defs>
</svg>
