<?xml version="1.0" encoding="UTF-8"?>
<svg xmlns="http://www.w3.org/2000/svg" width="30" height="30" viewBox="0 0 30 30" fill="none">
  <path d="M27.6152 0.685547H2.38778C1.06713 0.685547 0 1.75168 0 3.07032V26.931C0 28.2457 1.06713 29.3148 2.38778 29.3148H27.6152C28.9299 29.3148 30 28.2467 30 26.931V3.07032C29.999 1.75168 28.9289 0.685547 27.6152 0.685547ZM20.1653 9.18555C19.5451 8.82282 19.0531 8.53625 18.4349 8.53625C17.8297 8.53625 17.3126 8.68755 17.0481 8.94206C16.7836 9.19456 16.6523 9.68354 16.6523 10.406V11.4751H19.8878L19.1874 14.4491H16.6523V24.3308H12.5882V14.4491H10.6914V11.4751H12.5902V10.3399C12.5902 9.14446 12.7335 8.42903 13.016 7.83885C13.2976 7.25068 13.8437 6.59537 14.6032 6.22462C15.3617 5.85489 16.484 5.66851 17.6453 5.66851C18.8357 5.66851 19.7655 6.06531 20.9058 6.38495L20.1653 9.18555Z" fill="white" fill-opacity="0.7"></path>
</svg>
