<?xml version="1.0" encoding="UTF-8"?>
<svg xmlns="http://www.w3.org/2000/svg" width="41" height="42" viewBox="0 0 41 42" fill="none">
  <path d="M28.3993 24.6078L33.0409 29.253L20.4795 41.8289L7.91983 29.2547L12.5614 24.6078L20.4812 32.5779L28.3993 24.6078ZM36.3209 16.6788L41 21.324L36.3619 25.9692L31.7203 21.324L36.3209 16.6788ZM20.4812 16.6788L25.121 21.283L20.4795 25.9299L15.8397 21.324L20.4795 16.6805L20.4812 16.6788ZM4.63983 16.6788L9.24208 21.324L4.64325 25.9282L0 21.324L4.63983 16.6788ZM20.4829 0.817383L33.0426 13.354L28.401 17.9975L20.4812 10.0685L12.5631 18.0385L7.92154 13.3933L20.4812 0.819093L20.4829 0.817383Z" fill="#FF6A57"></path>
</svg>
