<?xml version="1.0" encoding="UTF-8"?>
<svg xmlns="http://www.w3.org/2000/svg" width="23" height="42" viewBox="0 0 23 42" fill="none">
  <path d="M16.7076 19.5505L8.08077 17.0193C7.08229 16.7309 6.38735 15.7938 6.38735 14.7525C6.38735 13.4468 7.44174 12.3895 8.74376 12.3895H14.0397C15.0142 12.3895 15.9727 12.6859 16.7715 13.2305C17.2588 13.559 17.9138 13.4788 18.3292 13.0703L21.1089 10.3469C21.6761 9.79422 21.5962 8.87306 20.9651 8.38445C19.0081 6.84651 16.5638 5.98943 14.0557 5.98142V2.13659C14.0557 1.43171 13.4805 0.85498 12.7776 0.85498H10.2215C9.51858 0.85498 8.94346 1.43171 8.94346 2.13659V5.98142H8.74376C3.65551 5.98142 -0.434253 10.3629 0.037029 15.5615C0.372518 19.2541 3.18423 22.2579 6.73083 23.2992L14.9184 25.7022C15.9168 25.9986 16.6118 26.9278 16.6118 27.9691C16.6118 29.2747 15.5574 30.332 14.2554 30.332H8.95943C7.98492 30.332 7.02638 30.0357 6.2276 29.491C5.74034 29.1626 5.08534 29.2427 4.66997 29.6512L1.8902 32.3746C1.32307 32.9273 1.40295 33.8485 2.03399 34.3371C3.991 35.875 6.43528 36.7321 8.94346 36.7401V40.5849C8.94346 41.2898 9.51858 41.8665 10.2215 41.8665H12.7776C13.4805 41.8665 14.0557 41.2898 14.0557 40.5849V36.7241C17.778 36.652 21.2687 34.4332 22.4988 30.9008C24.2162 25.9665 21.3326 20.9042 16.7076 19.5505Z" fill="#FF6A57"></path>
</svg>
