<?xml version="1.0" encoding="UTF-8"?>
<svg xmlns="http://www.w3.org/2000/svg" width="42" height="43" viewBox="0 0 42 43" fill="none">
  <path d="M0.838341 16.4956C0.719732 16.8181 0.593071 17.1707 0.466411 17.5234C-1.85894 28.3681 4.71846 39.2797 15.5655 42.1869C26.2923 45.062 37.3424 39.0361 40.8594 28.6718C41.0102 28.229 41.161 27.7863 41.2818 27.3354C41.4026 26.8846 41.4933 26.4257 41.584 25.9668C41.4332 26.4096 41.2824 26.8524 41.1015 27.2871C37.3431 36.7492 27.2155 42.2169 17.1491 40.0021C16.8406 39.9516 16.51 39.863 16.2096 39.7825C6.3541 37.141 0.48116 26.9659 3.12192 17.1076C5.76269 7.24939 15.9349 1.37479 25.7904 4.0163C15.364 1.22178 4.73735 6.74908 0.838341 16.4956Z" fill="#FF6A57"></path>
  <path d="M1.03001 15.4194C0.903348 15.772 0.814786 16.1026 0.718172 16.4633C0.621559 16.8239 0.532997 17.1546 0.466431 17.5233C0.593091 17.1707 0.711701 16.8481 0.838361 16.4955C4.73737 6.74899 15.3641 1.22169 25.7604 4.00816C26.0608 4.0887 26.3914 4.17728 26.6838 4.28787C36.0198 7.30558 41.4383 17.1334 38.8781 26.6911C36.3178 36.2488 26.7127 42.0499 17.1491 40.002C27.2155 42.2168 37.3431 36.7491 41.1015 27.287C41.2824 26.8523 41.4332 26.4095 41.584 25.9667C43.7189 15.232 37.1613 4.48682 26.4345 1.61177C15.5875 -1.2955 4.43705 4.86455 1.03001 15.4194Z" fill="#FF6A57"></path>
  <path d="M31.2766 10.9939C26.5441 6.38759 20.4707 8.23327 18.8143 10.2052C28.1531 6.16674 29.9357 12.1244 29.6991 15.7264C29.5939 16.4626 28.9892 18.5186 27.4117 20.2223C25.8342 21.926 22.6529 22.089 21.2594 21.9576C22.3321 25.4281 20.6021 28.399 19.6031 29.4507C18.3411 30.3446 15.3911 31.6119 13.6874 29.5296C11.9837 27.4473 12.8198 25.0337 13.4508 24.0872C11.3685 26.1695 11.1897 29.0826 11.4 30.3972C11.7944 31.9484 11.9522 34.1043 14.8705 35.603C17.0791 35.9185 19.7608 37.0227 23.3891 33.71C26.2917 31.0598 26.1234 27.5051 25.6764 26.0591C28.6422 26.7532 31.4869 24.4027 32.5386 23.1407C34.0898 21.011 36.0091 15.6002 31.2766 10.9939Z" fill="#FF6A57"></path>
  <path d="M27.7272 14.8587C29.6202 16.7517 28.2005 19.2758 28.2005 19.2758C29.4625 18.0138 31.2766 13.3601 27.6484 9.8896C24.7458 7.1132 20.6022 8.78535 18.8932 9.96848L8.63944 20.5378C3.84383 28.4884 10.6639 33.7099 14.6339 35.3663C9.90144 31.6434 11.3212 26.69 13.1353 24.4026L22.9159 14.6221C22.9159 14.6221 25.4399 12.5714 27.7272 14.8587Z" fill="#FF6A57"></path>
</svg>
